<?xml version="1.0" encoding="UTF-8"?>
<svg width="24" height="24" viewBox="0 0 24 24" fill="none" xmlns="http://www.w3.org/2000/svg">
<path d="M3 3.24609L5.02379 3.59636L5.96076 14.7593C6.03568 15.67 6.79849 16.3705 7.71211 16.3676H18.3263C19.199 16.3696 19.9395 15.7274 20.063 14.8634L20.9864 8.48264C21.0895 7.76945 20.5953 7.10783 19.8821 7.00469C19.8198 6.99593 5.34876 6.99107 5.34876 6.99107" stroke="#000000" stroke-width="1.5" stroke-linecap="round" stroke-linejoin="round"></path>
<path d="M14.6271 11.549H11.4863" stroke="#000000" stroke-width="1.5" stroke-linecap="round" stroke-linejoin="round"></path>
<path d="M7.23825 20.2452V20.3633M7.71701 20.2706C7.71701 20.5365 7.50125 20.7521 7.23531 20.7521C6.96937 20.7521 6.75391 20.5365 6.75391 20.2706C6.75391 20.0046 6.96937 19.7891 7.23531 19.7891C7.50125 19.7891 7.71701 20.0046 7.71701 20.2706Z" stroke="#000000" stroke-width="1.5" stroke-linecap="round" stroke-linejoin="round"></path>
<path d="M18.2617 20.2452V20.3633M18.7405 20.2706C18.7405 20.5365 18.5247 20.7521 18.2588 20.7521C17.9928 20.7521 17.7773 20.5365 17.7773 20.2706C17.7773 20.0046 17.9928 19.7891 18.2588 19.7891C18.5247 19.7891 18.7405 20.0046 18.7405 20.2706Z" stroke="#000000" stroke-width="1.5" stroke-linecap="round" stroke-linejoin="round"></path>
</svg>