<svg width="72" height="72" viewBox="0 0 72 72" fill="none" xmlns="http://www.w3.org/2000/svg">
<rect width="72" height="72" fill="white"/>
<path d="M23.4612 44.8481V27.9648H27.0194V44.8481H23.4612ZM13 44.8481V27.9648H16.5582V44.8481H13ZM14.4233 38.0707L14.447 34.7905H25.2877V38.0707H14.4233Z" fill="black"/>
<path d="M34.604 45.0893C33.323 45.0893 32.1765 44.8079 31.1644 44.2452C30.1681 43.6663 29.3773 42.8784 28.7922 41.8815C28.2229 40.8846 27.9382 39.7429 27.9382 38.4566C27.9382 37.1702 28.2229 36.0366 28.7922 35.0558C29.3773 34.0589 30.1681 33.271 31.1644 32.6921C32.1765 32.1132 33.323 31.8238 34.604 31.8238C35.8691 31.8238 36.9998 32.1132 37.9961 32.6921C39.0083 33.271 39.799 34.0589 40.3683 35.0558C40.9376 36.0366 41.2223 37.1702 41.2223 38.4566C41.2223 39.7429 40.9376 40.8846 40.3683 41.8815C39.799 42.8784 39.0083 43.6663 37.9961 44.2452C36.9998 44.8079 35.8691 45.0893 34.604 45.0893ZM34.604 42.0986C35.2207 42.0986 35.7742 41.9458 36.2645 41.6403C36.7547 41.3187 37.1343 40.8846 37.4031 40.3379C37.6878 39.7751 37.8301 39.148 37.8301 38.4566C37.8301 37.7491 37.6878 37.122 37.4031 36.5753C37.1343 36.0125 36.7547 35.5784 36.2645 35.2729C35.7742 34.9513 35.2207 34.7905 34.604 34.7905C33.9714 34.7905 33.41 34.9513 32.9197 35.2729C32.4295 35.5944 32.042 36.0286 31.7574 36.5753C31.4727 37.122 31.3383 37.7491 31.3541 38.4566C31.3383 39.148 31.4727 39.7751 31.7574 40.3379C32.042 40.8846 32.4295 41.3187 32.9197 41.6403C33.41 41.9458 33.9714 42.0986 34.604 42.0986Z" fill="black"/>
<path d="M42.357 44.8481V27H45.7255V44.8481H42.357Z" fill="black"/>
<path d="M53.3245 45.0893C52.0435 45.0893 50.897 44.8079 49.8849 44.2452C48.8886 43.6663 48.0979 42.8784 47.5127 41.8815C46.9434 40.8846 46.6588 39.7429 46.6588 38.4566C46.6588 37.1702 46.9434 36.0366 47.5127 35.0558C48.0979 34.0589 48.8886 33.271 49.8849 32.6921C50.897 32.1132 52.0435 31.8238 53.3245 31.8238C54.5896 31.8238 55.7204 32.1132 56.7167 32.6921C57.7288 33.271 58.5195 34.0589 59.0888 35.0558C59.6581 36.0366 59.9428 37.1702 59.9428 38.4566C59.9428 39.7429 59.6581 40.8846 59.0888 41.8815C58.5195 42.8784 57.7288 43.6663 56.7167 44.2452C55.7204 44.8079 54.5896 45.0893 53.3245 45.0893ZM53.3245 42.0986C53.9413 42.0986 54.4948 41.9458 54.985 41.6403C55.4752 41.3187 55.8548 40.8846 56.1236 40.3379C56.4083 39.7751 56.5506 39.148 56.5506 38.4566C56.5506 37.7491 56.4083 37.122 56.1236 36.5753C55.8548 36.0125 55.4752 35.5784 54.985 35.2729C54.4948 34.9513 53.9413 34.7905 53.3245 34.7905C52.6919 34.7905 52.1305 34.9513 51.6403 35.2729C51.15 35.5944 50.7626 36.0286 50.4779 36.5753C50.1933 37.122 50.0588 37.7491 50.0747 38.4566C50.0588 39.148 50.1933 39.7751 50.4779 40.3379C50.7626 40.8846 51.15 41.3187 51.6403 41.6403C52.1305 41.9458 52.6919 42.0986 53.3245 42.0986Z" fill="black"/>
</svg>
